<svg xmlns="http://www.w3.org/2000/svg" xmlns:xlink="http://www.w3.org/1999/xlink"><symbol id="down"><path d="M4.33 6L0 0h8.66L4.33 6z"/></symbol><symbol id="inst"><path d="M7 1.262c1.869 0 2.09.007 2.83.04 1.896.087 2.782.987 2.869 2.87.033.738.04.96.04 2.829 0 1.87-.007 2.09-.04 2.828-.087 1.881-.971 2.783-2.87 2.87-.738.033-.959.04-2.829.04-1.869 0-2.09-.007-2.829-.04-1.901-.087-2.783-.992-2.869-2.87-.034-.738-.04-.96-.04-2.829 0-1.869.007-2.09.04-2.829.087-1.882.97-2.783 2.87-2.869.738-.033.959-.04 2.828-.04zM7 0C5.099 0 4.86.008 4.114.042 1.572.159.16 1.569.043 4.114.008 4.86 0 5.099 0 7c0 1.901.008 2.14.042 2.886.117 2.543 1.527 3.955 4.072 4.072.747.034.985.042 2.886.042 1.901 0 2.14-.008 2.886-.042 2.54-.117 3.957-1.527 4.071-4.072C13.992 9.14 14 8.901 14 7c0-1.901-.008-2.14-.042-2.886C13.844 1.574 12.431.16 9.887.043 9.14.008 8.9 0 7 0zm0 3.405a3.595 3.595 0 100 7.19 3.595 3.595 0 000-7.19zm0 5.928a2.333 2.333 0 110-4.666 2.333 2.333 0 010 4.666zm3.737-6.91a.84.84 0 100 1.681.84.84 0 000-1.68z" fill="#fff"/></symbol><symbol id="menu-btn"><path d="M0 1h22M0 8h22M0 15h22" stroke="#00a2dd" stroke-width="2"/></symbol><symbol id="menu-close-btn"><path fill-rule="evenodd" clip-rule="evenodd" d="M20 21.413L0 1.414 1.414 0l20 20-1.415 1.413z" fill="#00a2dd"/><path fill-rule="evenodd" clip-rule="evenodd" d="M21.998 1.414L2 21.414.585 19.998 20.585 0l1.413 1.414z" fill="#00a2dd"/></symbol><symbol id="ok"><path d="M4.212 11.27c-1.24-.13-2.358-.435-3.316-1.184-.119-.093-.241-.183-.35-.287-.419-.402-.461-.863-.13-1.338.284-.407.76-.516 1.256-.282.095.045.187.101.274.162 1.785 1.226 4.236 1.26 6.027.055.178-.136.367-.247.587-.303a.922.922 0 011.056.42c.262.428.259.845-.064 1.177a4.87 4.87 0 01-1.753 1.133c-.626.242-1.312.364-1.99.445.102.112.15.167.214.231.922.926 1.847 1.848 2.765 2.776.313.316.379.709.206 1.077-.188.402-.61.666-1.023.638-.262-.018-.466-.148-.648-.331-.695-.7-1.403-1.386-2.084-2.1-.199-.207-.294-.167-.469.013-.7.72-1.41 1.429-2.125 2.134-.321.316-.703.373-1.076.192-.396-.191-.647-.596-.628-1.002.013-.274.148-.484.337-.672.912-.91 1.821-1.823 2.73-2.735.06-.061.117-.125.204-.219z" fill="#fff"/><path d="M4.968 8.099C2.755 8.09.941 6.257.954 4.04A4.056 4.056 0 015.017 0c2.239.006 4.036 1.838 4.025 4.102-.012 2.212-1.839 4.004-4.074 3.997zm2.011-4.053a1.972 1.972 0 00-1.978-1.978A1.975 1.975 0 003.017 4.07a1.972 1.972 0 001.994 1.962 1.968 1.968 0 001.968-1.986z" fill="#fff"/></symbol><symbol id="path-img"><path d="M2.143 130.5l-1.997-.117 1.997.117zm6 27.5l-1.696 1.06L8.143 158zm19.5 35l1.97-.34-1.97.34zm3.494 27.653c.088-1.152.164-2.764.194-4.715l-4-.063a76.63 76.63 0 01-.183 4.472l3.989.306zm.18-9.388a137.68 137.68 0 00-.508-9.32l-3.984.356c.29 3.246.437 6.325.493 9.046l4-.082zm-1.01-13.969a107.789 107.789 0 00-.694-4.636l-3.941.68c.257 1.491.478 2.984.667 4.463l3.968-.507zm-.694-4.636c-.392-2.279-1.057-4.575-1.9-6.837l-3.749 1.398c.777 2.082 1.366 4.135 1.708 6.119l3.941-.68zm-4.737-13.201c-2.166-4.224-4.745-8.246-7.16-11.719l-3.283 2.284c2.357 3.39 4.829 7.251 6.883 11.26l3.56-1.825zm-11.152-17.232c-1.92-2.568-3.292-4.338-3.885-5.287l-3.392 2.12c.71 1.138 2.275 3.156 4.074 5.562l3.203-2.395zM9.84 156.94c-.72-1.151-1.52-2.379-2.318-3.968l-3.574 1.797c.901 1.792 1.817 3.2 2.5 4.291l3.392-2.12zm-4.003-8.102c-.746-2.331-1.367-5.235-1.658-8.932l-3.988.314c.314 3.983.99 7.193 1.837 9.838l3.81-1.22zM4 135.282a77.444 77.444 0 01.14-4.665l-3.994-.234A81.391 81.391 0 000 135.288l4-.006zm.14-4.665c.086-1.472.343-3.039.75-4.679l-3.882-.964c-.455 1.831-.758 3.645-.862 5.409l3.993.234zm2.223-9.329c1.12-2.957 2.587-5.997 4.247-8.987l-3.497-1.941c-1.729 3.113-3.286 6.331-4.49 9.511l3.74 1.417zm6.794-13.31a125.22 125.22 0 015.673-8.326l-3.214-2.38a129.386 129.386 0 00-5.856 8.593l3.397 2.113zm8.751-12.318a99.287 99.287 0 013.228-3.83l-2.986-2.66a103.21 103.21 0 00-3.36 3.985l3.118 2.505zm3.228-3.83a274.893 274.893 0 003.63-4.134l-3.037-2.603a271.088 271.088 0 01-3.58 4.076l2.987 2.662zm7.162-8.402c2.14-2.688 4.39-5.726 6.514-9.025l-3.364-2.165c-2.034 3.16-4.2 6.087-6.28 8.7l3.13 2.49zm9.39-13.828c1.798-3.246 3.404-6.696 4.625-10.282l-3.787-1.29c-1.13 3.32-2.63 6.552-4.337 9.635l3.5 1.937zm6.149-15.776c.397-1.87.673-3.77.801-5.691l-3.991-.266a36.271 36.271 0 01-.723 5.126l3.913.831zm.801-5.691c.125-1.873.128-3.762.03-5.65l-3.995.208a43.677 43.677 0 01-.026 5.176l3.991.266zm-.54-11.229c-.552-3.69-1.426-7.34-2.482-10.835l-3.83 1.158c1.012 3.344 1.837 6.803 2.355 10.269l3.957-.592zm-4.235-16.08a115.217 115.217 0 00-4.29-10.155l-3.608 1.728a111.212 111.212 0 014.14 9.8l3.758-1.372zm-6.78-15.067A102.22 102.22 0 0034.35.96l-3.417 2.08a98.32 98.32 0 012.624 4.607l3.525-1.89z" fill="#0D3351"/></symbol><symbol id="rubl"><path d="M.273 10.09h1.909v1.637a.264.264 0 00.273.273h1.423a.269.269 0 00.273-.273v-1.636h4.304a.268.268 0 00.196-.077.265.265 0 00.076-.196v-1.09a.265.265 0 00-.076-.197.265.265 0 00-.196-.077H4.15V7.45h2.898c1.136 0 2.064-.347 2.783-1.04.719-.693 1.078-1.588 1.078-2.685 0-1.096-.36-1.99-1.078-2.684C9.112.347 8.184 0 7.048 0H2.455a.266.266 0 00-.196.077.266.266 0 00-.077.196v5.36H.272A.27.27 0 000 5.907v1.27a.265.265 0 00.273.273h1.91v1.005H.272a.265.265 0 00-.195.077.265.265 0 00-.077.196v1.091c0 .08.025.145.077.196a.265.265 0 00.196.077zM4.15 1.817h2.728c.602 0 1.088.176 1.457.528.37.352.554.813.554 1.38 0 .569-.185 1.03-.554 1.381-.37.353-.855.529-1.457.529H4.15V1.816z" fill="#34C7FD"/></symbol><symbol id="user"><path d="M8 3a3 3 0 11-6 0 3 3 0 016 0zm-8 8c.284.474 1 1 1 1h8s.716-.526 1-1V8c-.284-.474-.506-.753-1-1H7c-.494.247-.506.753-1 1-.699.35-1.301.35-2 0-.494-.247-.506-.753-1-1H1c-.494.247-.716.526-1 1v3z" fill="#34C7FD"/></symbol><symbol id="vk"><path d="M9.871 11.245c.457 0 .644-.304.639-.686-.024-1.438.535-2.211 1.544-1.203 1.116 1.116 1.347 1.89 2.702 1.89h2.4c.606 0 .845-.196.845-.502 0-.647-1.066-1.789-1.969-2.627-1.264-1.174-1.324-1.202-.235-2.615C17.148 3.748 18.915 1.5 17.352 1.5h-2.986c-.579 0-.62.326-.827.812-.746 1.76-2.165 4.04-2.703 3.692-.563-.364-.305-1.805-.263-3.946.012-.565.009-.953-.855-1.154A6.052 6.052 0 008.36.75c-1.705 0-2.88.715-2.213.84 1.179.219 1.066 2.768.791 3.87-.478 1.915-2.276-1.52-3.025-3.23-.181-.41-.236-.73-.881-.73H.59c-.369 0-.59.12-.59.387 0 .451 2.22 5.04 4.34 7.327 2.067 2.232 4.11 2.031 5.531 2.031z" fill="#fff"/></symbol><symbol id="windrose-icon"><path fill-rule="evenodd" clip-rule="evenodd" d="M36 59.2c13.365 0 24.2-10.835 24.2-24.2 0-13.365-10.835-24.2-24.2-24.2-13.365 0-24.2 10.835-24.2 24.2 0 13.365 10.835 24.2 24.2 24.2zm0 .8c13.807 0 25-11.193 25-25S49.807 10 36 10 11 21.193 11 35s11.193 25 25 25z" fill="#37C8FD"/><path fill-rule="evenodd" clip-rule="evenodd" d="M36.5 49C44.508 49 51 42.508 51 34.5S44.508 20 36.5 20 22 26.492 22 34.5 28.492 49 36.5 49zm0 1C45.06 50 52 43.06 52 34.5 52 25.94 45.06 19 36.5 19 27.94 19 21 25.94 21 34.5 21 43.06 27.94 50 36.5 50z" fill="#37C8FD"/><path fill-rule="evenodd" clip-rule="evenodd" d="M25.844 45.509l-.34-.367L36.25 34.397v2.166L25.844 45.51zm4.705-4.705l5.201-4.47v-.73l-5.2 5.2z" fill="#37C8FD"/><path d="M34.539 35.013L25.5 45.5 36 35l-1.461.013z" fill="#37C8FD"/><path fill-rule="evenodd" clip-rule="evenodd" d="M25.31 45.337l.367.34 10.932-10.932-2.185.019-9.113 10.573zm4.787-4.787l4.557-5.288.737-.007-5.294 5.295z" fill="#37C8FD"/><path d="M36.013 36.461L46.5 45.5 36 35l.013 1.461z" fill="#37C8FD"/><path fill-rule="evenodd" clip-rule="evenodd" d="M46.337 45.69l.34-.367-10.932-10.932.019 2.185 10.573 9.113zm-4.787-4.786l-5.288-4.558-.007-.737 5.295 5.294z" fill="#37C8FD"/><path d="M37.461 34.987L46.5 24.5 36 35l1.461-.013z" fill="#37C8FD"/><path fill-rule="evenodd" clip-rule="evenodd" d="M46.69 24.663l-.367-.34-10.932 10.932 2.185-.019 9.113-10.573zm-4.786 4.787l-4.558 5.288-.737.007 5.294-5.295z" fill="#37C8FD"/><path d="M35.987 33.539L25.5 24.5 36 35l-.013-1.461z" fill="#37C8FD"/><path fill-rule="evenodd" clip-rule="evenodd" d="M25.663 24.31l-.34.367 10.932 10.932-.019-2.185-10.573-9.113zm4.787 4.787l5.288 4.557.007.737-5.295-5.294z" fill="#37C8FD"/><path fill-rule="evenodd" clip-rule="evenodd" d="M46.509 45.156l-.367.34L35.397 34.75h2.166l8.946 10.406zm-4.705-4.705l-4.47-5.201h-.73l5.2 5.201z" fill="#37C8FD"/><path fill-rule="evenodd" clip-rule="evenodd" d="M46.156 24.491l.34.367L35.75 35.604v-2.167l10.406-8.945zm-4.705 4.704l-5.201 4.471v.73l5.201-5.2z" fill="#37C8FD"/><path fill-rule="evenodd" clip-rule="evenodd" d="M25.672 25.025l.367-.34 10.746 10.746h-2.167l-8.946-10.406zm4.704 4.705l4.471 5.201h.73l-5.2-5.2z" fill="#37C8FD"/><path fill-rule="evenodd" clip-rule="evenodd" d="M7.481 35.25l.019-.5h29.104l-2.508 2.508L7.48 35.249zm6.653 0l19.77 1.492 1.492-1.492H14.134z" fill="#37C8FD"/><path d="M33.965 33L7 35h29l-2.035-2z" fill="#37C8FD"/><path fill-rule="evenodd" clip-rule="evenodd" d="M6.982 34.75l.018.5h29.611l-2.552-2.508-27.077 2.009zm6.769 0l20.12-1.492 1.518 1.492H13.75z" fill="#37C8FD"/><path d="M34 37.035L36 64V35l-2 2.035z" fill="#37C8FD"/><path fill-rule="evenodd" clip-rule="evenodd" d="M35.75 64.019l.5-.019V34.389l-2.508 2.552 2.009 27.078zm0-6.77l-1.492-20.12 1.492-1.518V57.25z" fill="#37C8FD"/><path d="M38.035 37L65 35H36l2.035 2z" fill="#37C8FD"/><path fill-rule="evenodd" clip-rule="evenodd" d="M65.019 35.25l-.019-.5H35.389l2.552 2.508 27.078-2.009zm-6.77 0l-20.12 1.492-1.518-1.492H58.25z" fill="#37C8FD"/><path d="M38 32.965L36 6v29l2-2.035z" fill="#37C8FD"/><path fill-rule="evenodd" clip-rule="evenodd" d="M36.25 5.981l-.5.019v29.611l2.508-2.552-2.009-27.078zm0 6.77l1.492 20.12-1.492 1.518V12.75z" fill="#37C8FD"/><path fill-rule="evenodd" clip-rule="evenodd" d="M36.25 63.519l-.5-.019V34.396l2.508 2.508-2.009 26.615zm0-6.653l1.492-19.77-1.492-1.492v21.262z" fill="#37C8FD"/><path fill-rule="evenodd" clip-rule="evenodd" d="M64.519 34.75l-.019.5H35.396l2.508-2.508 26.615 2.009zm-6.653 0l-19.77-1.492-1.492 1.492h21.262z" fill="#37C8FD"/><path fill-rule="evenodd" clip-rule="evenodd" d="M35.75 6.981l.5.019v29.103l-2.508-2.507L35.751 6.98zm0 6.653l-1.492 19.77 1.492 1.492V13.634zm-6.836 4.844l-2.016-4.264.904-.428 2.016 4.265-.904.427zm12.973-.725l2.602-3.935.834.552-2.602 3.934-.834-.551zm6.14 3.969l3.415-3.254.69.724-3.415 3.254-.69-.724zm-24.481.963l-3.34-3.33.706-.71 3.34 3.332-.706.708zm28.549 4.511l4.315-1.906.404.914-4.315 1.907-.404-.915zm-32.36 1.728l-4-2.5.53-.848 4 2.5-.53.848zm32.432 11.264l4 2.5-.53.848-4-2.5.53-.848zm-32.36 1.728l-4.315 1.907-.404-.915 4.315-1.906.404.914zm28.549 4.512l3.34 3.33-.706.708-3.34-3.33.706-.708zm-24.481.962l-3.415 3.255-.69-.725 3.415-3.254.69.724zm19.112 3.244l2.016 4.264-.904.428-2.016-4.265.904-.427zm-12.972.725l-2.602 3.935-.834-.551 2.601-3.935.835.551z" fill="#37C8FD"/><path d="M6.6 32.74L5.262 37H4.41l-1.092-2.91L2.25 37h-.858L.06 32.74h.93l.912 3.024.966-3.024h.894l.996 3.018.9-3.018H6.6zm30.382 33.116a1.532 1.532 0 00-.426-.252 2.019 2.019 0 00-.342-.12 1.507 1.507 0 00-.378-.048c-.228 0-.398.042-.51.126a.417.417 0 00-.168.354c0 .088.02.162.06.222a.6.6 0 00.186.15c.08.044.18.084.3.12.124.036.266.074.426.114.208.056.396.116.564.18.172.064.316.144.432.24a.97.97 0 01.276.348c.064.132.096.296.096.492 0 .228-.044.424-.132.588-.084.16-.2.29-.348.39-.144.1-.312.174-.504.222a2.6 2.6 0 01-.594.066c-.32 0-.636-.048-.948-.144a2.927 2.927 0 01-.84-.408l.366-.714c.036.036.1.084.192.144.096.056.208.114.336.174.128.056.27.104.426.144.156.04.316.06.48.06.456 0 .684-.146.684-.438a.36.36 0 00-.078-.234.662.662 0 00-.222-.168 2.125 2.125 0 00-.348-.132l-.456-.132a4.363 4.363 0 01-.534-.18 1.52 1.52 0 01-.372-.234.95.95 0 01-.228-.312 1.144 1.144 0 01-.072-.426c0-.216.04-.408.12-.576.08-.168.19-.308.33-.42a1.5 1.5 0 01.498-.252 2.308 2.308 0 011.434.054c.252.092.472.202.66.33l-.366.672zm32.42-29.582V37h-2.958v-4.26h2.904v.726h-2.076v1.026h1.794v.672h-1.794v1.11h2.13zM35.272 2.27V5h-.828V.74h.642l2.22 2.796V.746h.828V5h-.672l-2.19-2.73z" fill="#37C8FD"/></symbol><symbol id="yt"><path d="M2.489 0h1.08l.741 2.776L4.997 0h1.09L4.84 4.129v2.818H3.765V4.129L2.49 0zm4.946 1.78c-.84 0-1.396.555-1.396 1.376v2.512c0 .903.472 1.373 1.396 1.373.766 0 1.369-.512 1.369-1.373V3.156c0-.802-.598-1.376-1.37-1.376zm.398 3.845c0 .279-.143.484-.4.484-.263 0-.415-.215-.415-.484V3.241c0-.28.13-.489.397-.489.292 0 .418.202.418.489v2.384zm3.546-3.803v3.89c-.116.146-.374.384-.56.384-.203 0-.253-.14-.253-.345V1.822h-.953v4.283c0 .506.155.915.665.915.288 0 .689-.15 1.101-.64v.566h.953V1.823h-.953zm1.653 10.394c-.336 0-.406.236-.406.572v.495h.802v-.495c0-.33-.07-.572-.396-.572zm-3.527.03a.693.693 0 00-.188.149v3.04a.79.79 0 00.215.172c.148.075.364.08.464-.05.053-.069.08-.18.08-.337v-2.519c0-.165-.033-.29-.098-.375-.11-.145-.314-.16-.473-.08zm3.62-3.896c-1.953-.133-8.3-.133-10.25 0C.765 8.494.515 9.769.5 13.125c.016 3.35.262 4.631 2.375 4.775 1.95.133 8.297.133 10.25 0 2.11-.144 2.36-1.42 2.375-4.775-.016-3.35-.262-4.631-2.375-4.775zm-9.243 8.014H2.86V10.71H1.802v-.96h3.137v.96H3.88v5.655zm3.634 0H6.61v-.538c-.168.198-.341.35-.522.453-.49.281-1.16.274-1.16-.716v-4.078h.906v3.74c0 .197.047.33.242.33.177 0 .423-.228.533-.366v-3.704h.908v4.88zm3.493-1.01c0 .603-.226 1.073-.83 1.073-.332 0-.609-.122-.861-.438v.375h-.916V9.75h.916v2.13c.205-.25.483-.456.807-.456.664 0 .885.562.885 1.223v2.707h-.001zm3.353-1.315h-1.735v.921c0 .366.031.683.396.683.383 0 .405-.258.405-.683v-.339h.934v.367c0 .94-.403 1.51-1.36 1.51-.866 0-1.309-.632-1.309-1.51v-2.19c0-.848.56-1.436 1.378-1.436.87 0 1.29.553 1.29 1.435v1.242h.001z" fill="#fff"/></symbol></svg>